# xmcd
#
# Track frame offsets:
#	150
#	18150
#	30750
#	47475
#	65175
#	78375
#	93525
#	106125
#	119925
#	136500
#	156450
#	172800
#	189825
#	206175
#	218925
#
# Disc length: 3067 seconds
#
# Revision: 4
# Processed by: cddbd v1.5.2PL0 Copyright (c) Steve Scherf et al.
# Submitted via: audiograbber 1.83.01
#
DISCID=c70bf90f
DTITLE=Various Artist - DKG3040
DYEAR=1980
DGENRE=Karaoke
TTITLE0=Mandrell, Barbara - Years
TTITLE1=Parton, Dolly - Jolene
TTITLE2=Parton, Dolly - Romeo
TTITLE3=Murray, Anne And Loggins, Dave - Nobody Loves Me Like You Do
TTITLE4=Murray, Anne - I Just Fall In Love Again
TTITLE5=Harris, Emmylou - Blue Kentucky Girl
TTITLE6=Osmond, Marie - Paper Roses
TTITLE7=Williams, Don - Lord Have Mercy On A Country Boy
TTITLE8=Rogers, Kenny And Carnes, Kim - Don't Fall In Love With A Dreamer
TTITLE9=Rogers, Kenny - Coward Of The County
TTITLE10=Lee, Johnny - Lookin' For Love
TTITLE11=Twitty, Conway - She's Got A Single Thing In Mind
TTITLE12=Bellamy Brothers - If I Said You Had A Beautiful Body Would You Hold I
TTITLE12=t Against Me
TTITLE13=Oak Ridge Boys - American Made
TTITLE14=Hart, Freddie - Easy Loving
EXTD=
EXTT0=
EXTT1=
EXTT2=
EXTT3=
EXTT4=
EXTT5=
EXTT6=
EXTT7=
EXTT8=
EXTT9=
EXTT10=
EXTT11=
EXTT12=
EXTT13=
EXTT14=
PLAYORDER=
